<mxfile host="app.diagrams.net" agent="Mozilla/5.0 (Macintosh; Intel Mac OS X 10_15_7) AppleWebKit/537.36 (KHTML, like Gecko) Chrome/129.0.0.0 Safari/537.36" version="24.7.17">
  <diagram name="Page-1" id="GXDkSL0PC6GNDKpRCIQ0">
    <mxGraphModel dx="1026" dy="650" grid="1" gridSize="10" guides="1" tooltips="1" connect="1" arrows="1" fold="1" page="1" pageScale="1" pageWidth="850" pageHeight="1100" math="0" shadow="0">
      <root>
        <mxCell id="0" />
        <mxCell id="1" parent="0" />
        <mxCell id="Frbe6yG20Wet4R6j3Qqw-1" style="edgeStyle=orthogonalEdgeStyle;rounded=0;orthogonalLoop=1;jettySize=auto;html=1;" edge="1" parent="1" source="Frbe6yG20Wet4R6j3Qqw-3" target="Frbe6yG20Wet4R6j3Qqw-12">
          <mxGeometry relative="1" as="geometry" />
        </mxCell>
        <mxCell id="Frbe6yG20Wet4R6j3Qqw-2" value="1.0 Apply for job" style="edgeLabel;html=1;align=center;verticalAlign=middle;resizable=0;points=[];" vertex="1" connectable="0" parent="Frbe6yG20Wet4R6j3Qqw-1">
          <mxGeometry x="-0.35" y="1" relative="1" as="geometry">
            <mxPoint x="17" as="offset" />
          </mxGeometry>
        </mxCell>
        <mxCell id="Frbe6yG20Wet4R6j3Qqw-3" value="User" style="shape=umlActor;verticalLabelPosition=bottom;verticalAlign=top;html=1;outlineConnect=0;" vertex="1" parent="1">
          <mxGeometry x="84" y="120" width="30" height="60" as="geometry" />
        </mxCell>
        <mxCell id="Frbe6yG20Wet4R6j3Qqw-4" style="edgeStyle=orthogonalEdgeStyle;rounded=0;orthogonalLoop=1;jettySize=auto;html=1;" edge="1" parent="1" source="Frbe6yG20Wet4R6j3Qqw-8" target="Frbe6yG20Wet4R6j3Qqw-20">
          <mxGeometry relative="1" as="geometry" />
        </mxCell>
        <mxCell id="Frbe6yG20Wet4R6j3Qqw-5" value="1.6.2 Dispatch&amp;nbsp;&lt;div&gt;ApplicationSubmitted Event&lt;/div&gt;" style="edgeLabel;html=1;align=center;verticalAlign=middle;resizable=0;points=[];" vertex="1" connectable="0" parent="Frbe6yG20Wet4R6j3Qqw-4">
          <mxGeometry x="-0.1242" relative="1" as="geometry">
            <mxPoint x="4" y="-3" as="offset" />
          </mxGeometry>
        </mxCell>
        <mxCell id="Frbe6yG20Wet4R6j3Qqw-6" style="edgeStyle=orthogonalEdgeStyle;rounded=0;orthogonalLoop=1;jettySize=auto;html=1;" edge="1" parent="1" source="Frbe6yG20Wet4R6j3Qqw-8" target="Frbe6yG20Wet4R6j3Qqw-23">
          <mxGeometry relative="1" as="geometry" />
        </mxCell>
        <mxCell id="Frbe6yG20Wet4R6j3Qqw-7" value="1.6.1 Store application details" style="edgeLabel;html=1;align=center;verticalAlign=middle;resizable=0;points=[];" vertex="1" connectable="0" parent="Frbe6yG20Wet4R6j3Qqw-6">
          <mxGeometry x="-0.04" y="-2" relative="1" as="geometry">
            <mxPoint as="offset" />
          </mxGeometry>
        </mxCell>
        <mxCell id="Frbe6yG20Wet4R6j3Qqw-8" value="Application Service" style="whiteSpace=wrap;html=1;aspect=fixed;" vertex="1" parent="1">
          <mxGeometry x="480" y="199" width="80" height="80" as="geometry" />
        </mxCell>
        <mxCell id="Frbe6yG20Wet4R6j3Qqw-9" style="edgeStyle=orthogonalEdgeStyle;rounded=0;orthogonalLoop=1;jettySize=auto;html=1;entryX=0.5;entryY=1;entryDx=0;entryDy=0;" edge="1" parent="1" source="Frbe6yG20Wet4R6j3Qqw-12" target="Frbe6yG20Wet4R6j3Qqw-15">
          <mxGeometry relative="1" as="geometry" />
        </mxCell>
        <mxCell id="Frbe6yG20Wet4R6j3Qqw-10" value="1.1 Create user account" style="edgeLabel;html=1;align=center;verticalAlign=middle;resizable=0;points=[];" vertex="1" connectable="0" parent="Frbe6yG20Wet4R6j3Qqw-9">
          <mxGeometry x="-0.4" y="-2" relative="1" as="geometry">
            <mxPoint x="9" y="-3" as="offset" />
          </mxGeometry>
        </mxCell>
        <mxCell id="Frbe6yG20Wet4R6j3Qqw-39" style="edgeStyle=orthogonalEdgeStyle;rounded=0;orthogonalLoop=1;jettySize=auto;html=1;entryX=0.5;entryY=0;entryDx=0;entryDy=0;" edge="1" parent="1" source="Frbe6yG20Wet4R6j3Qqw-12" target="Frbe6yG20Wet4R6j3Qqw-38">
          <mxGeometry relative="1" as="geometry" />
        </mxCell>
        <mxCell id="Frbe6yG20Wet4R6j3Qqw-40" value="1.4 Resume&amp;nbsp;&lt;div&gt;upload&lt;/div&gt;" style="edgeLabel;html=1;align=center;verticalAlign=middle;resizable=0;points=[];" vertex="1" connectable="0" parent="Frbe6yG20Wet4R6j3Qqw-39">
          <mxGeometry x="0.26" y="1" relative="1" as="geometry">
            <mxPoint as="offset" />
          </mxGeometry>
        </mxCell>
        <mxCell id="Frbe6yG20Wet4R6j3Qqw-46" style="edgeStyle=orthogonalEdgeStyle;rounded=0;orthogonalLoop=1;jettySize=auto;html=1;entryX=0;entryY=0.5;entryDx=0;entryDy=0;exitX=1.019;exitY=0.863;exitDx=0;exitDy=0;exitPerimeter=0;" edge="1" parent="1" source="Frbe6yG20Wet4R6j3Qqw-12" target="Frbe6yG20Wet4R6j3Qqw-8">
          <mxGeometry relative="1" as="geometry" />
        </mxCell>
        <mxCell id="Frbe6yG20Wet4R6j3Qqw-47" value="1.6 Submit application" style="edgeLabel;html=1;align=center;verticalAlign=middle;resizable=0;points=[];" vertex="1" connectable="0" parent="Frbe6yG20Wet4R6j3Qqw-46">
          <mxGeometry x="-0.0327" relative="1" as="geometry">
            <mxPoint as="offset" />
          </mxGeometry>
        </mxCell>
        <mxCell id="Frbe6yG20Wet4R6j3Qqw-12" value="Public App" style="whiteSpace=wrap;html=1;aspect=fixed;" vertex="1" parent="1">
          <mxGeometry x="240" y="110" width="80" height="80" as="geometry" />
        </mxCell>
        <mxCell id="Frbe6yG20Wet4R6j3Qqw-13" style="edgeStyle=orthogonalEdgeStyle;rounded=0;orthogonalLoop=1;jettySize=auto;html=1;entryX=1;entryY=0.25;entryDx=0;entryDy=0;" edge="1" parent="1" source="Frbe6yG20Wet4R6j3Qqw-15" target="Frbe6yG20Wet4R6j3Qqw-12">
          <mxGeometry relative="1" as="geometry" />
        </mxCell>
        <mxCell id="Frbe6yG20Wet4R6j3Qqw-14" value="1.3 Return Token" style="edgeLabel;html=1;align=center;verticalAlign=middle;resizable=0;points=[];" vertex="1" connectable="0" parent="Frbe6yG20Wet4R6j3Qqw-13">
          <mxGeometry x="0.191" relative="1" as="geometry">
            <mxPoint as="offset" />
          </mxGeometry>
        </mxCell>
        <mxCell id="Frbe6yG20Wet4R6j3Qqw-15" value="Identity Service" style="whiteSpace=wrap;html=1;aspect=fixed;" vertex="1" parent="1">
          <mxGeometry x="439" y="10" width="80" height="80" as="geometry" />
        </mxCell>
        <mxCell id="Frbe6yG20Wet4R6j3Qqw-18" style="edgeStyle=orthogonalEdgeStyle;rounded=0;orthogonalLoop=1;jettySize=auto;html=1;entryX=0.5;entryY=1;entryDx=0;entryDy=0;dashed=1;" edge="1" parent="1" source="Frbe6yG20Wet4R6j3Qqw-20" target="Frbe6yG20Wet4R6j3Qqw-30">
          <mxGeometry relative="1" as="geometry" />
        </mxCell>
        <mxCell id="Frbe6yG20Wet4R6j3Qqw-19" value="1.7 Consume&amp;nbsp;&lt;br&gt;&lt;div&gt;ApplicationSubmitted Event&lt;/div&gt;" style="edgeLabel;html=1;align=center;verticalAlign=middle;resizable=0;points=[];" vertex="1" connectable="0" parent="Frbe6yG20Wet4R6j3Qqw-18">
          <mxGeometry x="0.3455" y="1" relative="1" as="geometry">
            <mxPoint as="offset" />
          </mxGeometry>
        </mxCell>
        <mxCell id="Frbe6yG20Wet4R6j3Qqw-20" value="Event Broker" style="whiteSpace=wrap;html=1;aspect=fixed;" vertex="1" parent="1">
          <mxGeometry x="781" y="200" width="80" height="80" as="geometry" />
        </mxCell>
        <mxCell id="Frbe6yG20Wet4R6j3Qqw-21" value="Identity Db" style="shape=cylinder3;whiteSpace=wrap;html=1;boundedLbl=1;backgroundOutline=1;size=15;" vertex="1" parent="1">
          <mxGeometry x="660" y="10" width="60" height="80" as="geometry" />
        </mxCell>
        <mxCell id="Frbe6yG20Wet4R6j3Qqw-22" value="1.2 Persist user" style="edgeStyle=orthogonalEdgeStyle;rounded=0;orthogonalLoop=1;jettySize=auto;html=1;entryX=0;entryY=0.5;entryDx=0;entryDy=0;entryPerimeter=0;" edge="1" parent="1" source="Frbe6yG20Wet4R6j3Qqw-15" target="Frbe6yG20Wet4R6j3Qqw-21">
          <mxGeometry relative="1" as="geometry" />
        </mxCell>
        <mxCell id="Frbe6yG20Wet4R6j3Qqw-23" value="Applications Db" style="shape=cylinder3;whiteSpace=wrap;html=1;boundedLbl=1;backgroundOutline=1;size=15;" vertex="1" parent="1">
          <mxGeometry x="490" y="324" width="60" height="80" as="geometry" />
        </mxCell>
        <mxCell id="Frbe6yG20Wet4R6j3Qqw-29" value="Reporting Db" style="shape=cylinder3;whiteSpace=wrap;html=1;boundedLbl=1;backgroundOutline=1;size=15;" vertex="1" parent="1">
          <mxGeometry x="1000" y="32" width="60" height="80" as="geometry" />
        </mxCell>
        <mxCell id="Frbe6yG20Wet4R6j3Qqw-30" value="Reporting Service" style="whiteSpace=wrap;html=1;aspect=fixed;" vertex="1" parent="1">
          <mxGeometry x="781" y="30" width="80" height="80" as="geometry" />
        </mxCell>
        <mxCell id="Frbe6yG20Wet4R6j3Qqw-31" style="edgeStyle=orthogonalEdgeStyle;rounded=0;orthogonalLoop=1;jettySize=auto;html=1;entryX=0;entryY=0.5;entryDx=0;entryDy=0;entryPerimeter=0;" edge="1" parent="1" source="Frbe6yG20Wet4R6j3Qqw-30" target="Frbe6yG20Wet4R6j3Qqw-29">
          <mxGeometry relative="1" as="geometry" />
        </mxCell>
        <mxCell id="Frbe6yG20Wet4R6j3Qqw-32" value="1.7.1 Persist in Db" style="edgeLabel;html=1;align=center;verticalAlign=middle;resizable=0;points=[];" vertex="1" connectable="0" parent="Frbe6yG20Wet4R6j3Qqw-31">
          <mxGeometry x="-0.25" y="3" relative="1" as="geometry">
            <mxPoint x="9" y="2" as="offset" />
          </mxGeometry>
        </mxCell>
        <mxCell id="Frbe6yG20Wet4R6j3Qqw-33" value="Notification Service" style="whiteSpace=wrap;html=1;aspect=fixed;" vertex="1" parent="1">
          <mxGeometry x="781" y="321" width="80" height="80" as="geometry" />
        </mxCell>
        <mxCell id="Frbe6yG20Wet4R6j3Qqw-34" style="edgeStyle=orthogonalEdgeStyle;rounded=0;orthogonalLoop=1;jettySize=auto;html=1;entryX=0.5;entryY=0;entryDx=0;entryDy=0;dashed=1;" edge="1" parent="1" source="Frbe6yG20Wet4R6j3Qqw-20" target="Frbe6yG20Wet4R6j3Qqw-33">
          <mxGeometry relative="1" as="geometry" />
        </mxCell>
        <mxCell id="Frbe6yG20Wet4R6j3Qqw-35" value="1.8 Send notification" style="edgeLabel;html=1;align=center;verticalAlign=middle;resizable=0;points=[];" vertex="1" connectable="0" parent="Frbe6yG20Wet4R6j3Qqw-34">
          <mxGeometry x="0.0074" y="1" relative="1" as="geometry">
            <mxPoint as="offset" />
          </mxGeometry>
        </mxCell>
        <mxCell id="Frbe6yG20Wet4R6j3Qqw-41" style="edgeStyle=orthogonalEdgeStyle;rounded=0;orthogonalLoop=1;jettySize=auto;html=1;entryX=0.75;entryY=1;entryDx=0;entryDy=0;exitX=0.75;exitY=0;exitDx=0;exitDy=0;" edge="1" parent="1" source="Frbe6yG20Wet4R6j3Qqw-38" target="Frbe6yG20Wet4R6j3Qqw-12">
          <mxGeometry relative="1" as="geometry" />
        </mxCell>
        <mxCell id="Frbe6yG20Wet4R6j3Qqw-42" value="1.5 Object Id" style="edgeLabel;html=1;align=center;verticalAlign=middle;resizable=0;points=[];" vertex="1" connectable="0" parent="Frbe6yG20Wet4R6j3Qqw-41">
          <mxGeometry x="0.26" relative="1" as="geometry">
            <mxPoint x="1" as="offset" />
          </mxGeometry>
        </mxCell>
        <mxCell id="Frbe6yG20Wet4R6j3Qqw-38" value="Blob Storage Service" style="whiteSpace=wrap;html=1;aspect=fixed;" vertex="1" parent="1">
          <mxGeometry x="240" y="290" width="80" height="80" as="geometry" />
        </mxCell>
        <mxCell id="Frbe6yG20Wet4R6j3Qqw-48" style="edgeStyle=orthogonalEdgeStyle;rounded=0;orthogonalLoop=1;jettySize=auto;html=1;entryX=0;entryY=1;entryDx=0;entryDy=-15;entryPerimeter=0;exitX=1.05;exitY=0.838;exitDx=0;exitDy=0;exitPerimeter=0;" edge="1" parent="1" source="Frbe6yG20Wet4R6j3Qqw-30" target="Frbe6yG20Wet4R6j3Qqw-29">
          <mxGeometry relative="1" as="geometry" />
        </mxCell>
        <mxCell id="Frbe6yG20Wet4R6j3Qqw-49" value="1.7.2 Update Job&amp;nbsp;&lt;div&gt;Comission&lt;/div&gt;" style="edgeLabel;html=1;align=center;verticalAlign=middle;resizable=0;points=[];" vertex="1" connectable="0" parent="Frbe6yG20Wet4R6j3Qqw-48">
          <mxGeometry x="-0.2296" y="-4" relative="1" as="geometry">
            <mxPoint x="10" as="offset" />
          </mxGeometry>
        </mxCell>
      </root>
    </mxGraphModel>
  </diagram>
</mxfile>
